<svg xmlns="http://www.w3.org/2000/svg" xmlns:xlink="http://www.w3.org/1999/xlink" width="250" zoomAndPan="magnify" viewBox="0 0 187.92 83.04" height="100" preserveAspectRatio="xMidYMid meet" version="1.0"><defs><g/><clipPath id="bb82f1164c"><path d="M 1 0.542969 L 18 0.542969 L 18 21 L 1 21 Z M 1 0.542969 " clip-rule="nonzero"/></clipPath><clipPath id="01ee027b90"><path d="M 69 25 L 84.746094 25 L 84.746094 43.246094 L 69 43.246094 Z M 69 25 " clip-rule="nonzero"/></clipPath><clipPath id="da6e52145a"><rect x="0" width="85" y="0" height="44"/></clipPath><clipPath id="d291600b91"><path d="M 123 0 L 162.621094 0 L 162.621094 74 L 123 74 Z M 123 0 " clip-rule="nonzero"/></clipPath><clipPath id="fef45ab172"><path d="M 0.386719 3 L 6 3 L 6 10 L 0.386719 10 Z M 0.386719 3 " clip-rule="nonzero"/></clipPath><clipPath id="75b4749496"><rect x="0" width="79" y="0" height="14"/></clipPath></defs><g transform="matrix(1, 0, 0, 1, 38, 8)"><g clip-path="url(#da6e52145a)"><g clip-path="url(#bb82f1164c)"><g fill="#000000" fill-opacity="1"><g transform="translate(1.48578, 19.801534)"><g><path d="M 5.765625 -0.296875 C 5.078125 0.390625 4.347656 0.734375 3.578125 0.734375 C 3.054688 0.734375 2.550781 0.585938 2.0625 0.296875 C 1.582031 0.00390625 1.148438 -0.382812 0.765625 -0.875 C 0.390625 -1.363281 0.0976562 -1.921875 -0.109375 -2.546875 C -0.328125 -3.179688 -0.4375 -3.835938 -0.4375 -4.515625 C -0.0078125 -4.117188 0.410156 -3.804688 0.828125 -3.578125 C 1.253906 -3.359375 1.691406 -3.25 2.140625 -3.25 C 2.835938 -3.25 3.554688 -3.554688 4.296875 -4.171875 C 5.046875 -4.785156 5.84375 -5.796875 6.6875 -7.203125 L 6.59375 -7.203125 C 6.488281 -7.179688 6.378906 -7.171875 6.265625 -7.171875 C 6.160156 -7.171875 6.0625 -7.171875 5.96875 -7.171875 C 5.082031 -7.171875 4.4375 -7.410156 4.03125 -7.890625 C 3.632812 -8.367188 3.390625 -9.046875 3.296875 -9.921875 C 3.203125 -10.796875 3.15625 -11.820312 3.15625 -13 C 3.15625 -13.820312 3.101562 -14.648438 3 -15.484375 C 2.90625 -16.328125 2.648438 -17.125 2.234375 -17.875 C 2.390625 -17.96875 2.613281 -18.085938 2.90625 -18.234375 C 3.207031 -18.390625 3.515625 -18.53125 3.828125 -18.65625 C 4.140625 -18.78125 4.367188 -18.84375 4.515625 -18.84375 C 5.222656 -18.84375 5.773438 -18.679688 6.171875 -18.359375 C 6.578125 -18.035156 6.875 -17.613281 7.0625 -17.09375 C 7.257812 -16.570312 7.382812 -15.992188 7.4375 -15.359375 C 7.488281 -14.722656 7.519531 -14.085938 7.53125 -13.453125 C 7.539062 -12.816406 7.566406 -12.238281 7.609375 -11.71875 C 7.660156 -11.195312 7.765625 -10.773438 7.921875 -10.453125 C 8.085938 -10.128906 8.359375 -9.96875 8.734375 -9.96875 C 9.335938 -10.5625 9.921875 -11.273438 10.484375 -12.109375 C 11.046875 -12.941406 11.5625 -13.84375 12.03125 -14.8125 C 12.5 -15.789062 12.878906 -16.78125 13.171875 -17.78125 C 13.648438 -17.769531 14.125 -17.613281 14.59375 -17.3125 C 15.0625 -17.019531 15.457031 -16.648438 15.78125 -16.203125 C 16.101562 -15.765625 16.265625 -15.289062 16.265625 -14.78125 C 16.265625 -14.394531 16.101562 -13.882812 15.78125 -13.25 C 15.46875 -12.613281 15.046875 -11.894531 14.515625 -11.09375 C 13.984375 -10.289062 13.390625 -9.453125 12.734375 -8.578125 C 12.085938 -7.710938 11.410156 -6.847656 10.703125 -5.984375 C 10.003906 -5.128906 9.332031 -4.320312 8.6875 -3.5625 C 8.039062 -2.800781 7.460938 -2.132812 6.953125 -1.5625 C 6.441406 -1 6.046875 -0.578125 5.765625 -0.296875 Z M 5.765625 -0.296875 "/></g></g></g></g><g fill="#000000" fill-opacity="1"><g transform="translate(13.521278, 19.801534)"><g><path d="M 8.140625 -8.4375 C 8.140625 -8.945312 7.992188 -9.320312 7.703125 -9.5625 C 7.421875 -9.800781 7.082031 -9.921875 6.6875 -9.921875 C 6.351562 -9.921875 5.992188 -9.847656 5.609375 -9.703125 C 5.234375 -9.554688 4.878906 -9.34375 4.546875 -9.0625 L 4.6875 -9.0625 C 5.082031 -9.0625 5.472656 -8.976562 5.859375 -8.8125 C 6.242188 -8.644531 6.617188 -8.367188 6.984375 -7.984375 C 6.390625 -7.804688 5.859375 -7.488281 5.390625 -7.03125 C 4.921875 -6.570312 4.550781 -6.078125 4.28125 -5.546875 C 4.019531 -5.015625 3.890625 -4.539062 3.890625 -4.125 C 3.890625 -3.863281 3.953125 -3.648438 4.078125 -3.484375 C 4.203125 -3.316406 4.394531 -3.234375 4.65625 -3.234375 C 5.03125 -3.234375 5.414062 -3.410156 5.8125 -3.765625 C 6.207031 -4.117188 6.582031 -4.566406 6.9375 -5.109375 C 7.289062 -5.648438 7.578125 -6.21875 7.796875 -6.8125 C 8.023438 -7.40625 8.140625 -7.945312 8.140625 -8.4375 Z M 0.4375 -3.28125 C 0.4375 -3.9375 0.519531 -4.5625 0.6875 -5.15625 C 0.863281 -5.757812 1.097656 -6.304688 1.390625 -6.796875 L 1.390625 -7.015625 C 1.390625 -7.859375 1.597656 -8.640625 2.015625 -9.359375 C 2.441406 -10.085938 3 -10.722656 3.6875 -11.265625 C 4.382812 -11.804688 5.128906 -12.226562 5.921875 -12.53125 C 6.722656 -12.832031 7.5 -12.984375 8.25 -12.984375 C 8.894531 -12.984375 9.484375 -12.859375 10.015625 -12.609375 C 10.546875 -12.367188 10.96875 -11.976562 11.28125 -11.4375 C 11.601562 -10.894531 11.765625 -10.195312 11.765625 -9.34375 C 11.765625 -8.5625 11.632812 -7.734375 11.375 -6.859375 C 11.125 -5.992188 10.765625 -5.148438 10.296875 -4.328125 C 9.828125 -3.515625 9.269531 -2.78125 8.625 -2.125 C 7.976562 -1.476562 7.257812 -0.957031 6.46875 -0.5625 C 5.675781 -0.175781 4.828125 0.015625 3.921875 0.015625 C 3.347656 0.015625 2.789062 -0.128906 2.25 -0.421875 C 1.71875 -0.710938 1.28125 -1.109375 0.9375 -1.609375 C 0.601562 -2.109375 0.4375 -2.664062 0.4375 -3.28125 Z M 0.4375 -3.28125 "/></g></g></g><g fill="#000000" fill-opacity="1"><g transform="translate(24.334775, 19.801534)"><g><path d="M 8.390625 0.1875 C 7.710938 0.1875 7.179688 -0.109375 6.796875 -0.703125 C 6.421875 -1.304688 6.191406 -2.03125 6.109375 -2.875 C 5.492188 -1.832031 4.851562 -1.09375 4.1875 -0.65625 C 3.53125 -0.21875 2.910156 0 2.328125 0 C 1.847656 0 1.421875 -0.117188 1.046875 -0.359375 C 0.671875 -0.597656 0.375 -0.910156 0.15625 -1.296875 C -0.0507812 -1.679688 -0.15625 -2.09375 -0.15625 -2.53125 C -0.15625 -3.070312 -0.046875 -3.691406 0.171875 -4.390625 C 0.390625 -5.085938 0.664062 -5.820312 1 -6.59375 C 1.34375 -7.375 1.679688 -8.148438 2.015625 -8.921875 C 2.359375 -9.691406 2.648438 -10.414062 2.890625 -11.09375 C 3.128906 -11.769531 3.257812 -12.347656 3.28125 -12.828125 C 3.71875 -12.828125 4.171875 -12.753906 4.640625 -12.609375 C 5.109375 -12.460938 5.507812 -12.253906 5.84375 -11.984375 C 6.175781 -11.722656 6.34375 -11.414062 6.34375 -11.0625 C 6.34375 -10.757812 6.25 -10.382812 6.0625 -9.9375 C 5.875 -9.488281 5.644531 -9.015625 5.375 -8.515625 C 5.113281 -8.015625 4.847656 -7.519531 4.578125 -7.03125 C 4.304688 -6.539062 4.078125 -6.085938 3.890625 -5.671875 C 3.710938 -5.253906 3.625 -4.914062 3.625 -4.65625 C 3.625 -4.425781 3.707031 -4.265625 3.875 -4.171875 C 4.320312 -4.171875 4.742188 -4.316406 5.140625 -4.609375 C 5.546875 -4.898438 5.921875 -5.25 6.265625 -5.65625 C 6.617188 -6.0625 6.921875 -6.425781 7.171875 -6.75 C 7.421875 -7.070312 7.703125 -7.507812 8.015625 -8.0625 C 8.328125 -8.625 8.632812 -9.210938 8.9375 -9.828125 C 9.25 -10.441406 9.515625 -11.015625 9.734375 -11.546875 C 9.953125 -12.085938 10.082031 -12.503906 10.125 -12.796875 C 10.34375 -12.785156 10.601562 -12.734375 10.90625 -12.640625 C 11.21875 -12.546875 11.53125 -12.414062 11.84375 -12.25 C 12.15625 -12.09375 12.414062 -11.90625 12.625 -11.6875 C 12.832031 -11.476562 12.9375 -11.242188 12.9375 -10.984375 C 12.9375 -10.710938 12.835938 -10.363281 12.640625 -9.9375 C 12.453125 -9.519531 12.210938 -9.050781 11.921875 -8.53125 C 11.628906 -8.019531 11.335938 -7.484375 11.046875 -6.921875 C 10.753906 -6.367188 10.507812 -5.816406 10.3125 -5.265625 C 10.125 -4.722656 10.03125 -4.210938 10.03125 -3.734375 C 10.03125 -3.179688 10.210938 -2.90625 10.578125 -2.90625 C 10.796875 -2.90625 11.050781 -2.984375 11.34375 -3.140625 C 11.632812 -3.304688 11.921875 -3.503906 12.203125 -3.734375 C 12.492188 -3.960938 12.753906 -4.1875 12.984375 -4.40625 C 13.210938 -4.625 13.375 -4.789062 13.46875 -4.90625 C 13.269531 -4.375 12.992188 -3.8125 12.640625 -3.21875 C 12.285156 -2.625 11.878906 -2.066406 11.421875 -1.546875 C 10.972656 -1.035156 10.488281 -0.617188 9.96875 -0.296875 C 9.457031 0.0234375 8.929688 0.1875 8.390625 0.1875 Z M 8.390625 0.1875 "/></g></g></g><g fill="#000000" fill-opacity="1"><g transform="translate(35.955253, 19.801534)"><g><path d="M 8.375 -6.3125 C 8.257812 -5.78125 8.0625 -5.15625 7.78125 -4.4375 C 7.507812 -3.71875 7.160156 -3.019531 6.734375 -2.34375 C 6.316406 -1.675781 5.820312 -1.117188 5.25 -0.671875 C 4.6875 -0.222656 4.054688 0 3.359375 0 C 2.804688 0 2.316406 -0.148438 1.890625 -0.453125 C 1.472656 -0.753906 1.148438 -1.148438 0.921875 -1.640625 C 0.691406 -2.128906 0.578125 -2.664062 0.578125 -3.25 C 0.578125 -3.945312 0.679688 -4.660156 0.890625 -5.390625 C 1.109375 -6.128906 1.363281 -6.84375 1.65625 -7.53125 C 1.945312 -8.226562 2.207031 -8.851562 2.4375 -9.40625 C 2.132812 -9.570312 1.910156 -9.8125 1.765625 -10.125 C 1.617188 -10.445312 1.546875 -10.769531 1.546875 -11.09375 C 1.546875 -11.488281 1.640625 -11.8125 1.828125 -12.0625 C 2.148438 -12.0625 2.5 -12.085938 2.875 -12.140625 C 3.257812 -12.191406 3.53125 -12.242188 3.6875 -12.296875 C 4.226562 -13.242188 4.707031 -14.191406 5.125 -15.140625 C 5.539062 -16.085938 5.882812 -17.003906 6.15625 -17.890625 C 6.539062 -17.878906 6.945312 -17.773438 7.375 -17.578125 C 7.8125 -17.390625 8.175781 -17.128906 8.46875 -16.796875 C 8.769531 -16.472656 8.921875 -16.09375 8.921875 -15.65625 C 8.921875 -15.332031 8.828125 -15 8.640625 -14.65625 C 8.460938 -14.3125 8.269531 -13.953125 8.0625 -13.578125 C 7.851562 -13.210938 7.710938 -12.847656 7.640625 -12.484375 C 7.691406 -12.484375 7.742188 -12.484375 7.796875 -12.484375 C 7.859375 -12.492188 7.921875 -12.5 7.984375 -12.5 C 8.535156 -12.5 8.945312 -12.394531 9.21875 -12.1875 C 9.5 -11.976562 9.6875 -11.71875 9.78125 -11.40625 C 9.875 -11.101562 9.921875 -10.804688 9.921875 -10.515625 C 9.921875 -10.316406 9.910156 -10.132812 9.890625 -9.96875 C 9.878906 -9.8125 9.859375 -9.691406 9.828125 -9.609375 C 9.628906 -9.640625 9.429688 -9.65625 9.234375 -9.65625 C 9.046875 -9.65625 8.847656 -9.65625 8.640625 -9.65625 C 8.210938 -9.65625 7.785156 -9.632812 7.359375 -9.59375 C 6.929688 -9.5625 6.484375 -9.5 6.015625 -9.40625 C 5.910156 -9.238281 5.757812 -8.953125 5.5625 -8.546875 C 5.363281 -8.140625 5.148438 -7.675781 4.921875 -7.15625 C 4.703125 -6.644531 4.515625 -6.140625 4.359375 -5.640625 C 4.203125 -5.140625 4.125 -4.710938 4.125 -4.359375 C 4.125 -3.867188 4.34375 -3.625 4.78125 -3.625 C 5.082031 -3.625 5.453125 -3.742188 5.890625 -3.984375 C 6.328125 -4.234375 6.769531 -4.5625 7.21875 -4.96875 C 7.664062 -5.375 8.050781 -5.820312 8.375 -6.3125 Z M 8.375 -6.3125 "/></g></g></g><g fill="#000000" fill-opacity="1"><g transform="translate(43.978898, 19.801534)"><g><path d="M 12.796875 -10.578125 C 12.796875 -10.117188 12.65625 -9.601562 12.375 -9.03125 C 12.09375 -8.46875 11.765625 -7.882812 11.390625 -7.28125 C 11.023438 -6.6875 10.695312 -6.109375 10.40625 -5.546875 C 10.125 -4.984375 9.984375 -4.476562 9.984375 -4.03125 C 9.984375 -3.664062 10.15625 -3.484375 10.5 -3.484375 C 10.726562 -3.484375 10.992188 -3.546875 11.296875 -3.671875 C 11.609375 -3.804688 11.90625 -3.960938 12.1875 -4.140625 C 12.46875 -4.328125 12.6875 -4.484375 12.84375 -4.609375 C 12.769531 -4.128906 12.597656 -3.601562 12.328125 -3.03125 C 12.054688 -2.46875 11.710938 -1.9375 11.296875 -1.4375 C 10.878906 -0.9375 10.410156 -0.523438 9.890625 -0.203125 C 9.378906 0.117188 8.84375 0.28125 8.28125 0.28125 C 7.632812 0.28125 7.148438 0.15625 6.828125 -0.09375 C 6.503906 -0.34375 6.289062 -0.660156 6.1875 -1.046875 C 6.09375 -1.441406 6.046875 -1.835938 6.046875 -2.234375 C 6.046875 -2.804688 6.140625 -3.425781 6.328125 -4.09375 C 6.523438 -4.757812 6.769531 -5.421875 7.0625 -6.078125 C 7.351562 -6.742188 7.644531 -7.359375 7.9375 -7.921875 C 8.226562 -8.484375 8.472656 -8.945312 8.671875 -9.3125 C 8.210938 -9.3125 7.6875 -9.066406 7.09375 -8.578125 C 6.5 -8.085938 5.894531 -7.410156 5.28125 -6.546875 C 4.664062 -5.691406 4.097656 -4.707031 3.578125 -3.59375 C 3.054688 -2.476562 2.632812 -1.296875 2.3125 -0.046875 C 1.519531 -0.046875 0.894531 -0.242188 0.4375 -0.640625 C -0.0078125 -1.046875 -0.234375 -1.640625 -0.234375 -2.421875 C -0.234375 -2.878906 -0.109375 -3.492188 0.140625 -4.265625 C 0.398438 -5.035156 0.734375 -5.90625 1.140625 -6.875 C 1.546875 -7.84375 1.988281 -8.851562 2.46875 -9.90625 C 2.945312 -10.957031 3.414062 -12.007812 3.875 -13.0625 C 4.332031 -14.113281 4.742188 -15.101562 5.109375 -16.03125 C 5.472656 -16.96875 5.726562 -17.789062 5.875 -18.5 C 6.09375 -18.53125 6.300781 -18.554688 6.5 -18.578125 C 6.695312 -18.597656 6.898438 -18.609375 7.109375 -18.609375 C 7.640625 -18.609375 8.097656 -18.492188 8.484375 -18.265625 C 8.867188 -18.046875 9.0625 -17.625 9.0625 -17 C 9.0625 -16.582031 8.9375 -16.082031 8.6875 -15.5 C 8.445312 -14.925781 8.15625 -14.316406 7.8125 -13.671875 C 7.476562 -13.023438 7.171875 -12.398438 6.890625 -11.796875 C 6.617188 -11.191406 6.453125 -10.65625 6.390625 -10.1875 C 6.554688 -10.570312 6.875 -10.929688 7.34375 -11.265625 C 7.8125 -11.597656 8.351562 -11.867188 8.96875 -12.078125 C 9.582031 -12.296875 10.164062 -12.40625 10.71875 -12.40625 C 11.300781 -12.40625 11.789062 -12.269531 12.1875 -12 C 12.59375 -11.726562 12.796875 -11.253906 12.796875 -10.578125 Z M 12.796875 -10.578125 "/></g></g></g><g fill="#000000" fill-opacity="1"><g transform="translate(1.48578, 38.539623)"><g><path d="M 9.875 -8.046875 C 9.65625 -8.597656 9.398438 -8.992188 9.109375 -9.234375 C 8.816406 -9.472656 8.503906 -9.59375 8.171875 -9.59375 C 7.722656 -9.59375 7.25 -9.414062 6.75 -9.0625 C 6.257812 -8.707031 5.800781 -8.253906 5.375 -7.703125 C 4.957031 -7.160156 4.613281 -6.601562 4.34375 -6.03125 C 4.070312 -5.457031 3.9375 -4.9375 3.9375 -4.46875 C 3.9375 -4.113281 4.035156 -3.828125 4.234375 -3.609375 C 4.441406 -3.390625 4.769531 -3.28125 5.21875 -3.28125 C 5.582031 -3.28125 6.003906 -3.363281 6.484375 -3.53125 C 6.960938 -3.695312 7.441406 -3.914062 7.921875 -4.1875 C 8.398438 -4.46875 8.832031 -4.773438 9.21875 -5.109375 C 9.601562 -5.453125 9.882812 -5.796875 10.0625 -6.140625 C 9.914062 -5.398438 9.679688 -4.664062 9.359375 -3.9375 C 9.035156 -3.207031 8.617188 -2.539062 8.109375 -1.9375 C 7.609375 -1.332031 7.007812 -0.847656 6.3125 -0.484375 C 5.613281 -0.128906 4.816406 0.046875 3.921875 0.046875 C 2.566406 0.046875 1.597656 -0.265625 1.015625 -0.890625 C 0.429688 -1.523438 0.140625 -2.3125 0.140625 -3.25 C 0.140625 -4.019531 0.300781 -4.847656 0.625 -5.734375 C 0.957031 -6.628906 1.410156 -7.503906 1.984375 -8.359375 C 2.566406 -9.222656 3.226562 -10.003906 3.96875 -10.703125 C 4.707031 -11.410156 5.488281 -11.972656 6.3125 -12.390625 C 7.144531 -12.816406 7.976562 -13.03125 8.8125 -13.03125 C 9.695312 -13.03125 10.335938 -12.835938 10.734375 -12.453125 C 11.140625 -12.066406 11.34375 -11.59375 11.34375 -11.03125 C 11.34375 -10.550781 11.210938 -10.046875 10.953125 -9.515625 C 10.703125 -8.984375 10.34375 -8.492188 9.875 -8.046875 Z M 9.875 -8.046875 "/></g></g></g><g fill="#000000" fill-opacity="1"><g transform="translate(11.054218, 38.539623)"><g><path d="M 8.734375 -8.640625 C 8.992188 -8.722656 9.226562 -8.765625 9.4375 -8.765625 C 9.988281 -8.765625 10.457031 -8.582031 10.84375 -8.21875 C 11.226562 -7.863281 11.421875 -7.460938 11.421875 -7.015625 C 11.421875 -6.921875 11.351562 -6.738281 11.21875 -6.46875 C 11.09375 -6.195312 10.941406 -5.882812 10.765625 -5.53125 C 10.585938 -5.175781 10.429688 -4.804688 10.296875 -4.421875 C 10.160156 -4.035156 10.09375 -3.675781 10.09375 -3.34375 C 10.09375 -3.1875 10.179688 -3.109375 10.359375 -3.109375 C 10.523438 -3.109375 10.75 -3.1875 11.03125 -3.34375 C 11.320312 -3.5 11.609375 -3.691406 11.890625 -3.921875 C 12.171875 -4.148438 12.394531 -4.378906 12.5625 -4.609375 L 12.609375 -4.609375 C 12.578125 -4.097656 12.46875 -3.570312 12.28125 -3.03125 C 12.101562 -2.5 11.847656 -2.003906 11.515625 -1.546875 C 11.191406 -1.085938 10.800781 -0.710938 10.34375 -0.421875 C 9.882812 -0.140625 9.363281 0 8.78125 0 C 8.195312 0 7.734375 -0.210938 7.390625 -0.640625 C 7.054688 -1.078125 6.832031 -1.554688 6.71875 -2.078125 C 6.125 -1.378906 5.523438 -0.875 4.921875 -0.5625 C 4.328125 -0.25 3.765625 -0.09375 3.234375 -0.09375 C 2.429688 -0.09375 1.753906 -0.410156 1.203125 -1.046875 C 0.660156 -1.679688 0.390625 -2.546875 0.390625 -3.640625 C 0.390625 -4.691406 0.585938 -5.675781 0.984375 -6.59375 C 1.390625 -7.519531 1.929688 -8.347656 2.609375 -9.078125 C 3.285156 -9.816406 4.035156 -10.457031 4.859375 -11 C 5.679688 -11.539062 6.515625 -11.953125 7.359375 -12.234375 C 8.210938 -12.515625 9.019531 -12.65625 9.78125 -12.65625 C 10.5 -12.65625 11.070312 -12.503906 11.5 -12.203125 C 11.9375 -11.910156 12.15625 -11.503906 12.15625 -10.984375 C 12.15625 -10.441406 11.914062 -9.851562 11.4375 -9.21875 C 10.957031 -9.363281 10.5 -9.4375 10.0625 -9.4375 C 9.238281 -9.4375 8.476562 -9.25 7.78125 -8.875 C 7.09375 -8.507812 6.492188 -8.050781 5.984375 -7.5 C 5.484375 -6.957031 5.085938 -6.410156 4.796875 -5.859375 C 4.515625 -5.316406 4.375 -4.867188 4.375 -4.515625 C 4.375 -4.128906 4.535156 -3.9375 4.859375 -3.9375 C 5.171875 -3.9375 5.523438 -4.085938 5.921875 -4.390625 C 6.328125 -4.703125 6.734375 -5.101562 7.140625 -5.59375 C 7.546875 -6.09375 7.894531 -6.609375 8.1875 -7.140625 C 8.476562 -7.679688 8.660156 -8.179688 8.734375 -8.640625 Z M 8.734375 -8.640625 "/></g></g></g><g fill="#000000" fill-opacity="1"><g transform="translate(23.089716, 38.539623)"><g><path d="M 8.953125 -9.109375 C 8.671875 -9.109375 8.332031 -8.992188 7.9375 -8.765625 C 7.550781 -8.546875 7.171875 -8.265625 6.796875 -7.921875 C 6.429688 -7.578125 6.117188 -7.207031 5.859375 -6.8125 C 5.609375 -6.425781 5.484375 -6.0625 5.484375 -5.71875 C 5.484375 -5.101562 5.554688 -4.660156 5.703125 -4.390625 C 5.847656 -4.117188 6.03125 -3.984375 6.25 -3.984375 C 6.539062 -3.984375 6.867188 -4.148438 7.234375 -4.484375 C 7.609375 -4.828125 7.96875 -5.25 8.3125 -5.75 C 8.65625 -6.25 8.9375 -6.742188 9.15625 -7.234375 C 9.382812 -7.734375 9.5 -8.128906 9.5 -8.421875 C 9.5 -8.878906 9.316406 -9.109375 8.953125 -9.109375 Z M 1.453125 4.296875 C 1.097656 4.296875 0.675781 4.207031 0.1875 4.03125 C -0.289062 3.851562 -0.707031 3.59375 -1.0625 3.25 C -1.414062 2.914062 -1.59375 2.5 -1.59375 2 C -1.59375 1.664062 -1.460938 1.128906 -1.203125 0.390625 C -0.941406 -0.347656 -0.597656 -1.210938 -0.171875 -2.203125 C 0.253906 -3.191406 0.707031 -4.226562 1.1875 -5.3125 C 1.675781 -6.394531 2.144531 -7.460938 2.59375 -8.515625 C 3.050781 -9.566406 3.441406 -10.523438 3.765625 -11.390625 C 4.097656 -12.253906 4.3125 -12.945312 4.40625 -13.46875 C 4.800781 -13.457031 5.222656 -13.378906 5.671875 -13.234375 C 6.117188 -13.097656 6.503906 -12.882812 6.828125 -12.59375 C 7.148438 -12.3125 7.3125 -11.925781 7.3125 -11.4375 C 7.3125 -11.019531 7.164062 -10.546875 6.875 -10.015625 C 6.914062 -10.054688 6.960938 -10.09375 7.015625 -10.125 C 7.078125 -10.164062 7.128906 -10.203125 7.171875 -10.234375 C 7.890625 -10.816406 8.539062 -11.304688 9.125 -11.703125 C 9.71875 -12.109375 10.351562 -12.3125 11.03125 -12.3125 C 11.90625 -12.3125 12.53125 -12.0625 12.90625 -11.5625 C 13.28125 -11.0625 13.46875 -10.425781 13.46875 -9.65625 C 13.46875 -8.957031 13.328125 -8.179688 13.046875 -7.328125 C 12.773438 -6.472656 12.398438 -5.617188 11.921875 -4.765625 C 11.441406 -3.921875 10.894531 -3.148438 10.28125 -2.453125 C 9.664062 -1.753906 9.007812 -1.191406 8.3125 -0.765625 C 7.625 -0.347656 6.941406 -0.140625 6.265625 -0.140625 C 5.828125 -0.140625 5.457031 -0.25 5.15625 -0.46875 C 4.851562 -0.695312 4.59375 -0.988281 4.375 -1.34375 C 4.164062 -1.707031 3.976562 -2.082031 3.8125 -2.46875 C 3.539062 -1.832031 3.222656 -1.128906 2.859375 -0.359375 C 2.492188 0.398438 2.171875 1.179688 1.890625 1.984375 C 1.609375 2.785156 1.460938 3.554688 1.453125 4.296875 Z M 1.453125 4.296875 "/></g></g></g><g fill="#000000" fill-opacity="1"><g transform="translate(35.286609, 38.539623)"><g><path d="M 8.734375 -8.640625 C 8.992188 -8.722656 9.226562 -8.765625 9.4375 -8.765625 C 9.988281 -8.765625 10.457031 -8.582031 10.84375 -8.21875 C 11.226562 -7.863281 11.421875 -7.460938 11.421875 -7.015625 C 11.421875 -6.921875 11.351562 -6.738281 11.21875 -6.46875 C 11.09375 -6.195312 10.941406 -5.882812 10.765625 -5.53125 C 10.585938 -5.175781 10.429688 -4.804688 10.296875 -4.421875 C 10.160156 -4.035156 10.09375 -3.675781 10.09375 -3.34375 C 10.09375 -3.1875 10.179688 -3.109375 10.359375 -3.109375 C 10.523438 -3.109375 10.75 -3.1875 11.03125 -3.34375 C 11.320312 -3.5 11.609375 -3.691406 11.890625 -3.921875 C 12.171875 -4.148438 12.394531 -4.378906 12.5625 -4.609375 L 12.609375 -4.609375 C 12.578125 -4.097656 12.46875 -3.570312 12.28125 -3.03125 C 12.101562 -2.5 11.847656 -2.003906 11.515625 -1.546875 C 11.191406 -1.085938 10.800781 -0.710938 10.34375 -0.421875 C 9.882812 -0.140625 9.363281 0 8.78125 0 C 8.195312 0 7.734375 -0.210938 7.390625 -0.640625 C 7.054688 -1.078125 6.832031 -1.554688 6.71875 -2.078125 C 6.125 -1.378906 5.523438 -0.875 4.921875 -0.5625 C 4.328125 -0.25 3.765625 -0.09375 3.234375 -0.09375 C 2.429688 -0.09375 1.753906 -0.410156 1.203125 -1.046875 C 0.660156 -1.679688 0.390625 -2.546875 0.390625 -3.640625 C 0.390625 -4.691406 0.585938 -5.675781 0.984375 -6.59375 C 1.390625 -7.519531 1.929688 -8.347656 2.609375 -9.078125 C 3.285156 -9.816406 4.035156 -10.457031 4.859375 -11 C 5.679688 -11.539062 6.515625 -11.953125 7.359375 -12.234375 C 8.210938 -12.515625 9.019531 -12.65625 9.78125 -12.65625 C 10.5 -12.65625 11.070312 -12.503906 11.5 -12.203125 C 11.9375 -11.910156 12.15625 -11.503906 12.15625 -10.984375 C 12.15625 -10.441406 11.914062 -9.851562 11.4375 -9.21875 C 10.957031 -9.363281 10.5 -9.4375 10.0625 -9.4375 C 9.238281 -9.4375 8.476562 -9.25 7.78125 -8.875 C 7.09375 -8.507812 6.492188 -8.050781 5.984375 -7.5 C 5.484375 -6.957031 5.085938 -6.410156 4.796875 -5.859375 C 4.515625 -5.316406 4.375 -4.867188 4.375 -4.515625 C 4.375 -4.128906 4.535156 -3.9375 4.859375 -3.9375 C 5.171875 -3.9375 5.523438 -4.085938 5.921875 -4.390625 C 6.328125 -4.703125 6.734375 -5.101562 7.140625 -5.59375 C 7.546875 -6.09375 7.894531 -6.609375 8.1875 -7.140625 C 8.476562 -7.679688 8.660156 -8.179688 8.734375 -8.640625 Z M 8.734375 -8.640625 "/></g></g></g><g fill="#000000" fill-opacity="1"><g transform="translate(47.322107, 38.539623)"><g><path d="M 9.875 -8.046875 C 9.65625 -8.597656 9.398438 -8.992188 9.109375 -9.234375 C 8.816406 -9.472656 8.503906 -9.59375 8.171875 -9.59375 C 7.722656 -9.59375 7.25 -9.414062 6.75 -9.0625 C 6.257812 -8.707031 5.800781 -8.253906 5.375 -7.703125 C 4.957031 -7.160156 4.613281 -6.601562 4.34375 -6.03125 C 4.070312 -5.457031 3.9375 -4.9375 3.9375 -4.46875 C 3.9375 -4.113281 4.035156 -3.828125 4.234375 -3.609375 C 4.441406 -3.390625 4.769531 -3.28125 5.21875 -3.28125 C 5.582031 -3.28125 6.003906 -3.363281 6.484375 -3.53125 C 6.960938 -3.695312 7.441406 -3.914062 7.921875 -4.1875 C 8.398438 -4.46875 8.832031 -4.773438 9.21875 -5.109375 C 9.601562 -5.453125 9.882812 -5.796875 10.0625 -6.140625 C 9.914062 -5.398438 9.679688 -4.664062 9.359375 -3.9375 C 9.035156 -3.207031 8.617188 -2.539062 8.109375 -1.9375 C 7.609375 -1.332031 7.007812 -0.847656 6.3125 -0.484375 C 5.613281 -0.128906 4.816406 0.046875 3.921875 0.046875 C 2.566406 0.046875 1.597656 -0.265625 1.015625 -0.890625 C 0.429688 -1.523438 0.140625 -2.3125 0.140625 -3.25 C 0.140625 -4.019531 0.300781 -4.847656 0.625 -5.734375 C 0.957031 -6.628906 1.410156 -7.503906 1.984375 -8.359375 C 2.566406 -9.222656 3.226562 -10.003906 3.96875 -10.703125 C 4.707031 -11.410156 5.488281 -11.972656 6.3125 -12.390625 C 7.144531 -12.816406 7.976562 -13.03125 8.8125 -13.03125 C 9.695312 -13.03125 10.335938 -12.835938 10.734375 -12.453125 C 11.140625 -12.066406 11.34375 -11.59375 11.34375 -11.03125 C 11.34375 -10.550781 11.210938 -10.046875 10.953125 -9.515625 C 10.703125 -8.984375 10.34375 -8.492188 9.875 -8.046875 Z M 9.875 -8.046875 "/></g></g></g><g fill="#000000" fill-opacity="1"><g transform="translate(57.12114, 38.539623)"><g><path d="M -0.15625 -3 C -0.15625 -3.457031 -0.0234375 -4.039062 0.234375 -4.75 C 0.492188 -5.46875 0.820312 -6.257812 1.21875 -7.125 C 1.625 -8 2.03125 -8.890625 2.4375 -9.796875 C 2.851562 -10.703125 3.222656 -11.570312 3.546875 -12.40625 C 3.628906 -12.40625 3.710938 -12.410156 3.796875 -12.421875 C 3.878906 -12.429688 3.957031 -12.4375 4.03125 -12.4375 C 4.757812 -12.4375 5.359375 -12.332031 5.828125 -12.125 C 6.296875 -11.914062 6.53125 -11.5625 6.53125 -11.0625 C 6.53125 -10.851562 6.421875 -10.5 6.203125 -10 C 5.984375 -9.507812 5.710938 -8.945312 5.390625 -8.3125 C 5.066406 -7.6875 4.738281 -7.054688 4.40625 -6.421875 C 4.082031 -5.785156 3.8125 -5.203125 3.59375 -4.671875 C 3.382812 -4.140625 3.28125 -3.726562 3.28125 -3.4375 C 3.28125 -3.125 3.414062 -2.96875 3.6875 -2.96875 C 3.90625 -2.96875 4.175781 -3.046875 4.5 -3.203125 C 4.820312 -3.367188 5.164062 -3.570312 5.53125 -3.8125 C 5.90625 -4.050781 6.253906 -4.300781 6.578125 -4.5625 C 6.898438 -4.820312 7.164062 -5.054688 7.375 -5.265625 C 7.269531 -4.753906 7.070312 -4.191406 6.78125 -3.578125 C 6.5 -2.960938 6.144531 -2.375 5.71875 -1.8125 C 5.300781 -1.25 4.816406 -0.785156 4.265625 -0.421875 C 3.722656 -0.0664062 3.140625 0.109375 2.515625 0.109375 C 1.972656 0.109375 1.5 -0.0390625 1.09375 -0.34375 C 0.6875 -0.65625 0.375 -1.046875 0.15625 -1.515625 C -0.0507812 -1.992188 -0.15625 -2.488281 -0.15625 -3 Z M 7.125 -13.90625 C 6.695312 -13.8125 6.3125 -13.765625 5.96875 -13.765625 C 5.445312 -13.765625 5.070312 -13.875 4.84375 -14.09375 C 4.613281 -14.320312 4.5 -14.601562 4.5 -14.9375 C 4.5 -15.289062 4.597656 -15.679688 4.796875 -16.109375 C 4.992188 -16.535156 5.25 -16.9375 5.5625 -17.3125 C 6.414062 -17.3125 7.023438 -17.203125 7.390625 -16.984375 C 7.765625 -16.765625 7.953125 -16.429688 7.953125 -15.984375 C 7.953125 -15.429688 7.675781 -14.738281 7.125 -13.90625 Z M 7.125 -13.90625 "/></g></g></g><g fill="#000000" fill-opacity="1"><g transform="translate(63.300258, 38.539623)"><g><path d="M 8.375 -6.3125 C 8.257812 -5.78125 8.0625 -5.15625 7.78125 -4.4375 C 7.507812 -3.71875 7.160156 -3.019531 6.734375 -2.34375 C 6.316406 -1.675781 5.820312 -1.117188 5.25 -0.671875 C 4.6875 -0.222656 4.054688 0 3.359375 0 C 2.804688 0 2.316406 -0.148438 1.890625 -0.453125 C 1.472656 -0.753906 1.148438 -1.148438 0.921875 -1.640625 C 0.691406 -2.128906 0.578125 -2.664062 0.578125 -3.25 C 0.578125 -3.945312 0.679688 -4.660156 0.890625 -5.390625 C 1.109375 -6.128906 1.363281 -6.84375 1.65625 -7.53125 C 1.945312 -8.226562 2.207031 -8.851562 2.4375 -9.40625 C 2.132812 -9.570312 1.910156 -9.8125 1.765625 -10.125 C 1.617188 -10.445312 1.546875 -10.769531 1.546875 -11.09375 C 1.546875 -11.488281 1.640625 -11.8125 1.828125 -12.0625 C 2.148438 -12.0625 2.5 -12.085938 2.875 -12.140625 C 3.257812 -12.191406 3.53125 -12.242188 3.6875 -12.296875 C 4.226562 -13.242188 4.707031 -14.191406 5.125 -15.140625 C 5.539062 -16.085938 5.882812 -17.003906 6.15625 -17.890625 C 6.539062 -17.878906 6.945312 -17.773438 7.375 -17.578125 C 7.8125 -17.390625 8.175781 -17.128906 8.46875 -16.796875 C 8.769531 -16.472656 8.921875 -16.09375 8.921875 -15.65625 C 8.921875 -15.332031 8.828125 -15 8.640625 -14.65625 C 8.460938 -14.3125 8.269531 -13.953125 8.0625 -13.578125 C 7.851562 -13.210938 7.710938 -12.847656 7.640625 -12.484375 C 7.691406 -12.484375 7.742188 -12.484375 7.796875 -12.484375 C 7.859375 -12.492188 7.921875 -12.5 7.984375 -12.5 C 8.535156 -12.5 8.945312 -12.394531 9.21875 -12.1875 C 9.5 -11.976562 9.6875 -11.71875 9.78125 -11.40625 C 9.875 -11.101562 9.921875 -10.804688 9.921875 -10.515625 C 9.921875 -10.316406 9.910156 -10.132812 9.890625 -9.96875 C 9.878906 -9.8125 9.859375 -9.691406 9.828125 -9.609375 C 9.628906 -9.640625 9.429688 -9.65625 9.234375 -9.65625 C 9.046875 -9.65625 8.847656 -9.65625 8.640625 -9.65625 C 8.210938 -9.65625 7.785156 -9.632812 7.359375 -9.59375 C 6.929688 -9.5625 6.484375 -9.5 6.015625 -9.40625 C 5.910156 -9.238281 5.757812 -8.953125 5.5625 -8.546875 C 5.363281 -8.140625 5.148438 -7.675781 4.921875 -7.15625 C 4.703125 -6.644531 4.515625 -6.140625 4.359375 -5.640625 C 4.203125 -5.140625 4.125 -4.710938 4.125 -4.359375 C 4.125 -3.867188 4.34375 -3.625 4.78125 -3.625 C 5.082031 -3.625 5.453125 -3.742188 5.890625 -3.984375 C 6.328125 -4.234375 6.769531 -4.5625 7.21875 -4.96875 C 7.664062 -5.375 8.050781 -5.820312 8.375 -6.3125 Z M 8.375 -6.3125 "/></g></g></g><g clip-path="url(#01ee027b90)"><g fill="#000000" fill-opacity="1"><g transform="translate(71.323904, 38.539623)"><g><path d="M 11.96875 -7.59375 C 11.519531 -6.507812 11.070312 -5.398438 10.625 -4.265625 C 10.1875 -3.128906 9.710938 -2.035156 9.203125 -0.984375 C 8.691406 0.0664062 8.117188 1.015625 7.484375 1.859375 C 6.847656 2.710938 6.117188 3.382812 5.296875 3.875 C 4.484375 4.363281 3.546875 4.609375 2.484375 4.609375 C 1.703125 4.609375 1.019531 4.421875 0.4375 4.046875 C -0.132812 3.671875 -0.582031 3.175781 -0.90625 2.5625 C -1.226562 1.957031 -1.390625 1.3125 -1.390625 0.625 C -1.390625 0.3125 -1.34375 0.0078125 -1.25 -0.28125 C -0.894531 0.488281 -0.4375 1.082031 0.125 1.5 C 0.695312 1.914062 1.296875 2.125 1.921875 2.125 C 2.710938 2.125 3.488281 1.753906 4.25 1.015625 C 5.007812 0.273438 5.609375 -0.882812 6.046875 -2.46875 C 5.472656 -1.75 4.867188 -1.207031 4.234375 -0.84375 C 3.609375 -0.476562 3.023438 -0.296875 2.484375 -0.296875 C 1.859375 -0.296875 1.332031 -0.535156 0.90625 -1.015625 C 0.488281 -1.492188 0.28125 -2.191406 0.28125 -3.109375 C 0.28125 -3.617188 0.375 -4.191406 0.5625 -4.828125 C 0.757812 -5.460938 1.003906 -6.125 1.296875 -6.8125 C 1.585938 -7.507812 1.878906 -8.207031 2.171875 -8.90625 C 2.460938 -9.613281 2.710938 -10.289062 2.921875 -10.9375 C 3.128906 -11.582031 3.238281 -12.171875 3.25 -12.703125 C 4.1875 -12.703125 4.953125 -12.578125 5.546875 -12.328125 C 6.140625 -12.085938 6.4375 -11.695312 6.4375 -11.15625 C 6.4375 -10.851562 6.351562 -10.476562 6.1875 -10.03125 C 6.03125 -9.582031 5.835938 -9.113281 5.609375 -8.625 C 5.378906 -8.132812 5.144531 -7.65625 4.90625 -7.1875 C 4.664062 -6.71875 4.460938 -6.285156 4.296875 -5.890625 C 4.140625 -5.492188 4.0625 -5.179688 4.0625 -4.953125 C 4.0625 -4.859375 4.097656 -4.789062 4.171875 -4.75 C 4.253906 -4.707031 4.335938 -4.6875 4.421875 -4.6875 C 4.710938 -4.6875 5.085938 -4.875 5.546875 -5.25 C 6.015625 -5.632812 6.503906 -6.140625 7.015625 -6.765625 C 7.535156 -7.390625 8.03125 -8.054688 8.5 -8.765625 C 8.976562 -9.472656 9.378906 -10.160156 9.703125 -10.828125 C 10.023438 -11.492188 10.21875 -12.054688 10.28125 -12.515625 C 10.726562 -12.515625 11.175781 -12.441406 11.625 -12.296875 C 12.070312 -12.148438 12.445312 -11.929688 12.75 -11.640625 C 13.0625 -11.347656 13.21875 -10.984375 13.21875 -10.546875 C 13.21875 -10.367188 13.144531 -10.113281 13 -9.78125 C 12.851562 -9.457031 12.679688 -9.101562 12.484375 -8.71875 C 12.296875 -8.332031 12.125 -7.957031 11.96875 -7.59375 Z M 11.96875 -7.59375 "/></g></g></g></g></g></g><g clip-path="url(#d291600b91)"><path fill="#000000" d="M 133.730469 22.007812 C 133.730469 24.148438 135.476562 25.878906 137.632812 25.878906 C 139.785156 25.878906 141.53125 24.148438 141.53125 22.007812 C 141.53125 19.871094 139.785156 18.136719 137.632812 18.136719 C 135.476562 18.136719 133.730469 19.871094 133.730469 22.007812 Z M 156.535156 2.957031 C 156.535156 4.582031 155.207031 5.898438 153.570312 5.898438 C 151.9375 5.898438 150.609375 4.582031 150.609375 2.957031 C 150.609375 1.332031 151.9375 0.015625 153.574219 0.015625 C 155.207031 0.015625 156.535156 1.332031 156.535156 2.957031 Z M 128.402344 65.449219 C 137.238281 61.644531 143.449219 55.25 144.902344 45.511719 C 145.554688 41.132812 145.035156 38.191406 143.753906 34.03125 C 143.964844 36.070312 144.09375 36.582031 143.992188 38.617188 C 143.480469 48.960938 136.597656 56.539062 126.484375 58.667969 C 124.597656 59.191406 123.5 61.136719 124.03125 63.011719 C 124.558594 64.882812 126.515625 65.976562 128.402344 65.449219 Z M 145 72.742188 C 151.535156 63.65625 154.277344 53.902344 151.390625 42.867188 C 150.058594 37.777344 148.242188 34.6875 145.152344 30.511719 C 146.660156 33.308594 147.535156 34.953125 148.433594 38.046875 C 151.746094 49.503906 148.542969 60.15625 140.367188 68.640625 C 139.226562 69.910156 139.339844 71.859375 140.617188 72.992188 C 141.898438 74.121094 143.859375 74.011719 145 72.742188 Z M 157.414062 13.5625 C 156.921875 14.023438 137.578125 32.097656 137.101562 32.515625 C 130.964844 37.882812 122.578125 31.175781 127.132812 23.386719 C 124.574219 26.773438 124.300781 30.746094 127.382812 33.933594 C 130.75 37.417969 135.128906 37.003906 138.894531 34.4375 L 138.84375 34.480469 L 161.199219 18.070312 C 162.453125 17.03125 162.621094 15.183594 161.578125 13.9375 C 160.53125 12.691406 158.667969 12.527344 157.414062 13.5625 Z M 157.414062 13.5625 " fill-opacity="1" fill-rule="evenodd"/></g><g transform="matrix(1, 0, 0, 1, 36, 52)"><g clip-path="url(#75b4749496)"><g clip-path="url(#fef45ab172)"><g fill="#000000" fill-opacity="1"><g transform="translate(0.614323, 9.671818)"><g><path d="M 5.140625 -4.546875 C 5.078125 -4.179688 4.925781 -3.878906 4.6875 -3.640625 C 4.445312 -3.410156 4.160156 -3.242188 3.828125 -3.140625 C 4.109375 -3.085938 4.335938 -2.945312 4.515625 -2.71875 C 4.703125 -2.488281 4.796875 -2.21875 4.796875 -1.90625 C 4.796875 -1.8125 4.785156 -1.722656 4.765625 -1.640625 C 4.710938 -1.328125 4.585938 -1.046875 4.390625 -0.796875 C 4.191406 -0.546875 3.925781 -0.347656 3.59375 -0.203125 C 3.269531 -0.0664062 2.90625 0 2.5 0 L 0.234375 0 L 1.3125 -6.09375 L 3.5 -6.09375 C 4.039062 -6.09375 4.453125 -5.972656 4.734375 -5.734375 C 5.015625 -5.503906 5.15625 -5.203125 5.15625 -4.828125 C 5.15625 -4.734375 5.148438 -4.640625 5.140625 -4.546875 Z M 4.3125 -4.453125 C 4.320312 -4.503906 4.328125 -4.578125 4.328125 -4.671875 C 4.328125 -4.921875 4.238281 -5.113281 4.0625 -5.25 C 3.894531 -5.382812 3.644531 -5.453125 3.3125 -5.453125 L 1.984375 -5.453125 L 1.640625 -3.4375 L 2.96875 -3.4375 C 3.332031 -3.4375 3.632812 -3.523438 3.875 -3.703125 C 4.113281 -3.878906 4.257812 -4.128906 4.3125 -4.453125 Z M 3.984375 -1.71875 C 4.003906 -1.789062 4.015625 -1.863281 4.015625 -1.9375 C 4.015625 -2.207031 3.914062 -2.421875 3.71875 -2.578125 C 3.519531 -2.734375 3.25 -2.8125 2.90625 -2.8125 L 1.515625 -2.8125 L 1.140625 -0.625 L 2.546875 -0.625 C 2.929688 -0.625 3.25 -0.71875 3.5 -0.90625 C 3.757812 -1.101562 3.921875 -1.375 3.984375 -1.71875 Z M 3.984375 -1.71875 "/></g></g></g></g><g fill="#000000" fill-opacity="1"><g transform="translate(6.426882, 9.671818)"><g><path d="M 2.09375 -6.09375 L 1.40625 -2.25 C 1.375 -2.070312 1.359375 -1.925781 1.359375 -1.8125 C 1.359375 -1.414062 1.46875 -1.117188 1.6875 -0.921875 C 1.914062 -0.734375 2.226562 -0.640625 2.625 -0.640625 C 3.09375 -0.640625 3.476562 -0.769531 3.78125 -1.03125 C 4.09375 -1.300781 4.300781 -1.707031 4.40625 -2.25 L 5.078125 -6.09375 L 5.875 -6.09375 L 5.203125 -2.25 C 5.109375 -1.738281 4.925781 -1.3125 4.65625 -0.96875 C 4.394531 -0.625 4.078125 -0.363281 3.703125 -0.1875 C 3.328125 -0.0195312 2.921875 0.0625 2.484375 0.0625 C 1.910156 0.0625 1.445312 -0.0820312 1.09375 -0.375 C 0.738281 -0.675781 0.5625 -1.113281 0.5625 -1.6875 C 0.5625 -1.863281 0.578125 -2.050781 0.609375 -2.25 L 1.296875 -6.09375 Z M 2.09375 -6.09375 "/></g></g></g><g fill="#000000" fill-opacity="1"><g transform="translate(12.7805, 9.671818)"><g><path d="M 2.109375 -6.09375 L 1.015625 0 L 0.234375 0 L 1.3125 -6.09375 Z M 2.109375 -6.09375 "/></g></g></g><g fill="#000000" fill-opacity="1"><g transform="translate(15.390352, 9.671818)"><g><path d="M 1.140625 -0.609375 L 3.265625 -0.609375 L 3.15625 0 L 0.234375 0 L 1.3125 -6.09375 L 2.109375 -6.09375 Z M 1.140625 -0.609375 "/></g></g></g><g fill="#000000" fill-opacity="1"><g transform="translate(19.623373, 9.671818)"><g><path d="M 3.203125 -6.09375 C 4.066406 -6.09375 4.738281 -5.878906 5.21875 -5.453125 C 5.707031 -5.035156 5.953125 -4.457031 5.953125 -3.71875 C 5.953125 -3.476562 5.929688 -3.25 5.890625 -3.03125 C 5.773438 -2.40625 5.546875 -1.863281 5.203125 -1.40625 C 4.867188 -0.945312 4.4375 -0.597656 3.90625 -0.359375 C 3.382812 -0.117188 2.789062 0 2.125 0 L 0.234375 0 L 1.3125 -6.09375 Z M 2.234375 -0.609375 C 3.015625 -0.609375 3.648438 -0.820312 4.140625 -1.25 C 4.628906 -1.675781 4.941406 -2.269531 5.078125 -3.03125 C 5.109375 -3.238281 5.125 -3.4375 5.125 -3.625 C 5.125 -4.195312 4.953125 -4.640625 4.609375 -4.953125 C 4.265625 -5.273438 3.757812 -5.4375 3.09375 -5.4375 L 1.984375 -5.4375 L 1.140625 -0.609375 Z M 2.234375 -0.609375 "/></g></g></g><g fill="#000000" fill-opacity="1"><g transform="translate(26.256247, 9.671818)"><g><path d="M 2.109375 -6.09375 L 1.015625 0 L 0.234375 0 L 1.3125 -6.09375 Z M 2.109375 -6.09375 "/></g></g></g><g fill="#000000" fill-opacity="1"><g transform="translate(28.866099, 9.671818)"><g><path d="M 5.015625 0 L 4.21875 0 L 1.890625 -4.84375 L 1.015625 0 L 0.234375 0 L 1.3125 -6.09375 L 2.109375 -6.09375 L 4.453125 -1.25 L 5.296875 -6.09375 L 6.09375 -6.09375 Z M 5.015625 0 "/></g></g></g><g fill="#000000" fill-opacity="1"><g transform="translate(35.464061, 9.671818)"><g><path d="M 0.46875 -3.046875 C 0.570312 -3.640625 0.800781 -4.171875 1.15625 -4.640625 C 1.507812 -5.117188 1.941406 -5.488281 2.453125 -5.75 C 2.960938 -6.019531 3.5 -6.15625 4.0625 -6.15625 C 4.71875 -6.15625 5.265625 -5.992188 5.703125 -5.671875 C 6.148438 -5.359375 6.4375 -4.910156 6.5625 -4.328125 L 5.609375 -4.328125 C 5.503906 -4.679688 5.304688 -4.953125 5.015625 -5.140625 C 4.722656 -5.335938 4.367188 -5.4375 3.953125 -5.4375 C 3.523438 -5.4375 3.125 -5.335938 2.75 -5.140625 C 2.375 -4.953125 2.054688 -4.675781 1.796875 -4.3125 C 1.546875 -3.945312 1.375 -3.523438 1.28125 -3.046875 C 1.25 -2.898438 1.234375 -2.726562 1.234375 -2.53125 C 1.234375 -1.957031 1.398438 -1.5 1.734375 -1.15625 C 2.078125 -0.820312 2.53125 -0.65625 3.09375 -0.65625 C 3.695312 -0.65625 4.222656 -0.832031 4.671875 -1.1875 C 5.117188 -1.550781 5.425781 -2.039062 5.59375 -2.65625 L 3.171875 -2.65625 L 3.28125 -3.28125 L 6.5625 -3.28125 L 6.453125 -2.671875 C 6.316406 -2.171875 6.078125 -1.710938 5.734375 -1.296875 C 5.390625 -0.878906 4.976562 -0.550781 4.5 -0.3125 C 4.019531 -0.0703125 3.515625 0.046875 2.984375 0.046875 C 2.484375 0.046875 2.035156 -0.0507812 1.640625 -0.25 C 1.253906 -0.457031 0.953125 -0.75 0.734375 -1.125 C 0.523438 -1.507812 0.421875 -1.945312 0.421875 -2.4375 C 0.421875 -2.632812 0.4375 -2.835938 0.46875 -3.046875 Z M 0.46875 -3.046875 "/></g></g></g><g fill="#000000" fill-opacity="1"><g transform="translate(42.716529, 9.671818)"><g/></g></g><g fill="#000000" fill-opacity="1"><g transform="translate(45.780167, 9.671818)"><g><path d="M 4.75 -6.09375 L 4.625 -5.46875 L 1.984375 -5.46875 L 1.625 -3.375 L 3.765625 -3.375 L 3.65625 -2.765625 L 1.515625 -2.765625 L 1.015625 0 L 0.234375 0 L 1.3125 -6.09375 Z M 4.75 -6.09375 "/></g></g></g><g fill="#000000" fill-opacity="1"><g transform="translate(50.641513, 9.671818)"><g><path d="M 3 0.0625 C 2.5 0.0625 2.054688 -0.0390625 1.671875 -0.25 C 1.285156 -0.46875 0.984375 -0.769531 0.765625 -1.15625 C 0.554688 -1.539062 0.453125 -1.976562 0.453125 -2.46875 C 0.453125 -3.15625 0.609375 -3.78125 0.921875 -4.34375 C 1.234375 -4.90625 1.660156 -5.347656 2.203125 -5.671875 C 2.753906 -5.992188 3.367188 -6.15625 4.046875 -6.15625 C 4.554688 -6.15625 5.003906 -6.046875 5.390625 -5.828125 C 5.773438 -5.617188 6.070312 -5.320312 6.28125 -4.9375 C 6.5 -4.5625 6.609375 -4.128906 6.609375 -3.640625 C 6.609375 -2.941406 6.453125 -2.3125 6.140625 -1.75 C 5.828125 -1.1875 5.394531 -0.742188 4.84375 -0.421875 C 4.300781 -0.0976562 3.6875 0.0625 3 0.0625 Z M 3.125 -0.65625 C 3.632812 -0.65625 4.085938 -0.785156 4.484375 -1.046875 C 4.890625 -1.316406 5.207031 -1.675781 5.4375 -2.125 C 5.664062 -2.570312 5.78125 -3.054688 5.78125 -3.578125 C 5.78125 -4.160156 5.613281 -4.613281 5.28125 -4.9375 C 4.945312 -5.269531 4.5 -5.4375 3.9375 -5.4375 C 3.414062 -5.4375 2.953125 -5.300781 2.546875 -5.03125 C 2.148438 -4.769531 1.835938 -4.414062 1.609375 -3.96875 C 1.390625 -3.53125 1.28125 -3.050781 1.28125 -2.53125 C 1.28125 -1.945312 1.441406 -1.488281 1.765625 -1.15625 C 2.097656 -0.820312 2.550781 -0.65625 3.125 -0.65625 Z M 3.125 -0.65625 "/></g></g></g><g fill="#000000" fill-opacity="1"><g transform="translate(57.963796, 9.671818)"><g><path d="M 3.265625 -6.09375 C 3.867188 -6.09375 4.320312 -5.957031 4.625 -5.6875 C 4.9375 -5.425781 5.09375 -5.078125 5.09375 -4.640625 C 5.09375 -4.578125 5.082031 -4.460938 5.0625 -4.296875 C 4.988281 -3.878906 4.800781 -3.507812 4.5 -3.1875 C 4.207031 -2.863281 3.8125 -2.648438 3.3125 -2.546875 L 4.390625 0 L 3.4375 0 L 2.421875 -2.484375 L 1.46875 -2.484375 L 1.015625 0 L 0.234375 0 L 1.3125 -6.09375 Z M 4.25 -4.296875 C 4.257812 -4.398438 4.265625 -4.492188 4.265625 -4.578125 C 4.265625 -4.859375 4.171875 -5.070312 3.984375 -5.21875 C 3.804688 -5.375 3.53125 -5.453125 3.15625 -5.453125 L 1.984375 -5.453125 L 1.578125 -3.125 L 2.75 -3.125 C 3.175781 -3.125 3.515625 -3.226562 3.765625 -3.4375 C 4.023438 -3.65625 4.1875 -3.941406 4.25 -4.296875 Z M 4.25 -4.296875 "/></g></g></g><g fill="#000000" fill-opacity="1"><g transform="translate(63.732722, 9.671818)"><g><path d="M 2.09375 -6.09375 L 1.40625 -2.25 C 1.375 -2.070312 1.359375 -1.925781 1.359375 -1.8125 C 1.359375 -1.414062 1.46875 -1.117188 1.6875 -0.921875 C 1.914062 -0.734375 2.226562 -0.640625 2.625 -0.640625 C 3.09375 -0.640625 3.476562 -0.769531 3.78125 -1.03125 C 4.09375 -1.300781 4.300781 -1.707031 4.40625 -2.25 L 5.078125 -6.09375 L 5.875 -6.09375 L 5.203125 -2.25 C 5.109375 -1.738281 4.925781 -1.3125 4.65625 -0.96875 C 4.394531 -0.625 4.078125 -0.363281 3.703125 -0.1875 C 3.328125 -0.0195312 2.921875 0.0625 2.484375 0.0625 C 1.910156 0.0625 1.445312 -0.0820312 1.09375 -0.375 C 0.738281 -0.675781 0.5625 -1.113281 0.5625 -1.6875 C 0.5625 -1.863281 0.578125 -2.050781 0.609375 -2.25 L 1.296875 -6.09375 Z M 2.09375 -6.09375 "/></g></g></g><g fill="#000000" fill-opacity="1"><g transform="translate(70.08634, 9.671818)"><g><path d="M 7.46875 -6.046875 L 6.40625 0 L 5.609375 0 L 6.40625 -4.5 L 3.59375 0 L 3.046875 0 L 1.8125 -4.484375 L 1.015625 0 L 0.234375 0 L 1.296875 -6.046875 L 2.15625 -6.046875 L 3.515625 -1.046875 L 6.625 -6.046875 Z M 7.46875 -6.046875 "/></g></g></g></g></g></svg>